<?xml version="1.0" encoding="utf-8"?>
<svg viewBox="0 0 105 100" xmlns="http://www.w3.org/2000/svg">
  <path d="M 86.732 44.325 C 86.689 44.331 86.648 44.303 86.638 44.259 C 79.327 15.453 43.574 5.364 22.283 26.099 C 17.179 31.069 13.55 37.354 11.798 44.259 C 11.788 44.303 11.747 44.331 11.703 44.325 C 9.151 44.325 1.195 44.654 1.195 51.415 C 1.195 59.475 2.136 66.481 6.844 70.549 C 8.878 72.291 12.315 72.715 15.574 72.64 C 17.612 72.574 19.641 72.36 21.647 72 C 21.712 71.995 21.748 71.921 21.71 71.867 C 21.709 71.864 21.707 71.861 21.704 71.858 C 18.148 66.485 16.255 60.184 16.261 53.742 C 16.261 53.647 16.261 53.543 16.261 53.449 C 16.261 28.078 43.725 12.223 65.696 24.908 C 75.893 30.795 82.174 41.675 82.174 53.449 C 82.174 53.543 82.174 53.647 82.174 53.742 C 82.181 60.184 80.288 66.485 76.732 71.858 C 76.69 71.906 76.714 71.984 76.777 71.998 C 76.781 71.999 76.785 72 76.789 72 C 78.795 72.36 80.825 72.574 82.862 72.64 C 86.12 72.715 89.557 72.291 91.591 70.549 C 96.299 66.529 97.241 59.475 97.241 51.415 C 97.241 44.654 89.284 44.325 86.732 44.325 Z" style=""/>
  <path d="M 49.218 81.049 L 24.171 72.696 C 24.102 72.671 24.032 72.727 24.044 72.799 C 24.047 72.821 24.059 72.842 24.076 72.856 L 49.152 97.932 C 49.189 97.967 49.247 97.967 49.284 97.932 L 74.359 72.856 C 74.415 72.81 74.399 72.72 74.331 72.695 C 74.31 72.688 74.286 72.688 74.266 72.696 L 49.218 81.049 Z" style=""/>
  <path d="M 71.516 55.531 L 77.467 53.742 C 77.51 53.737 77.542 53.699 77.542 53.656 C 77.525 51.454 77.25 49.259 76.723 47.122 C 76.713 47.082 76.678 47.052 76.638 47.046 L 70.584 46.5 C 70.511 46.5 70.466 46.422 70.502 46.359 C 70.508 46.348 70.517 46.338 70.527 46.33 L 75.027 42.395 C 75.047 42.358 75.047 42.317 75.027 42.282 C 74.111 40.248 72.957 38.33 71.591 36.566 C 71.561 36.542 71.518 36.542 71.488 36.566 L 65.922 38.449 C 65.854 38.472 65.786 38.41 65.802 38.34 C 65.803 38.332 65.805 38.325 65.809 38.318 L 68.229 33.025 C 68.252 32.991 68.252 32.947 68.229 32.912 C 66.559 31.401 64.713 30.095 62.73 29.024 C 62.7 29 62.657 29 62.626 29.024 L 58.417 32.912 C 58.366 32.963 58.278 32.939 58.26 32.869 C 58.258 32.862 58.258 32.854 58.258 32.847 L 58.343 27.197 C 58.344 27.154 58.317 27.116 58.276 27.103 C 56.141 26.385 53.929 25.92 51.685 25.718 C 51.642 25.716 51.604 25.744 51.591 25.785 L 49.35 31 C 49.318 31.066 49.227 31.072 49.187 31.013 C 49.185 31.009 49.182 31.004 49.18 31 L 46.948 25.785 C 46.929 25.745 46.888 25.723 46.845 25.728 C 44.6 25.928 42.388 26.395 40.254 27.121 C 40.216 27.138 40.191 27.174 40.188 27.216 L 40.263 32.912 C 40.274 32.976 40.212 33.029 40.15 33.005 C 40.135 33.001 40.122 32.991 40.113 32.978 L 35.846 29.033 C 35.813 29.01 35.768 29.01 35.734 29.033 C 33.754 30.103 31.911 31.41 30.245 32.921 C 30.221 32.956 30.221 33.001 30.245 33.034 L 32.683 38.308 C 32.707 38.384 32.639 38.458 32.562 38.44 C 32.562 38.44 32.561 38.44 32.561 38.44 L 27.005 36.557 C 26.971 36.534 26.926 36.534 26.892 36.557 C 25.535 38.325 24.391 40.247 23.484 42.282 C 23.46 42.315 23.46 42.36 23.484 42.395 L 27.994 46.34 C 28.044 46.392 28.021 46.479 27.952 46.497 C 27.947 46.499 27.942 46.499 27.938 46.5 L 21.91 47.065 C 21.871 47.067 21.838 47.093 21.826 47.131 C 21.285 49.269 20.998 51.462 20.969 53.666 C 20.967 53.708 20.994 53.747 21.035 53.76 L 26.995 55.624 C 27.061 55.657 27.067 55.747 27.008 55.788 C 27.004 55.79 26.999 55.792 26.995 55.794 L 21.496 58.864 C 21.484 58.898 21.484 58.933 21.496 58.967 C 21.903 61.16 22.567 63.295 23.474 65.332 C 23.775 66.001 24.104 66.651 24.416 67.291 C 24.434 67.297 24.453 67.297 24.472 67.291 L 49.218 75.549 L 49.218 75.549 L 74.021 67.282 C 74.045 67.275 74.066 67.257 74.077 67.234 C 75.48 64.616 76.468 61.795 77.005 58.873 C 77.015 58.831 76.995 58.789 76.959 58.769 L 71.469 55.7 C 71.41 55.657 71.42 55.567 71.487 55.538 C 71.496 55.534 71.505 55.532 71.516 55.531 Z" style=""/>
  <path d="M 104.293 37.13 C 103.886 37.546 103.298 37.757 102.544 37.757 C 99.901 37.757 95.616 35.124 93.295 33.551 L 93.112 33.427 L 92.584 29.166 L 91.187 32.063 L 90.727 31.719 C 87.745 29.477 84.733 26.844 82.253 24.3 C 81.793 23.834 81.347 23.357 80.919 22.889 L 80.828 22.791 L 78.965 14.391 L 77.984 19.405 L 77.34 18.5 C 76.959 17.967 76.601 17.434 76.275 16.915 L 76.213 16.822 L 75.419 10.405 L 74.185 12.981 L 73.84 11.745 C 73.391 10.114 73.397 8.736 73.847 7.686 L 68.604 2.316 C 68.136 1.835 68.136 1.056 68.604 0.575 C 68.841 0.336 69.147 0.215 69.453 0.215 C 69.761 0.215 70.067 0.336 70.304 0.575 L 75.541 5.941 C 76.057 5.713 76.653 5.595 77.322 5.595 C 77.322 5.595 77.322 5.595 77.322 5.595 C 77.984 5.595 78.721 5.711 79.509 5.941 L 80.715 6.288 L 78.202 7.556 L 84.467 8.368 L 84.558 8.43 C 85.064 8.763 85.584 9.131 86.106 9.519 L 86.988 10.182 L 82.095 11.187 L 90.292 13.093 L 90.39 13.185 C 90.848 13.628 91.314 14.085 91.771 14.551 C 95.243 18.113 98.697 22.49 101.242 26.558 L 102.635 28.929 L 102.641 28.942 C 104.937 33.146 105.494 35.9 104.293 37.13 Z" style="" transform="matrix(-1, 0, 0, -1, 173.162117, 37.972)"/>
  <g transform="matrix(0.055831, 0, 0, 0.055831, 82.003021, 1.628246)" style=""/>
  <g transform="matrix(0.055831, 0, 0, 0.055831, 82.003021, 1.628246)" style=""/>
  <g transform="matrix(0.055831, 0, 0, 0.055831, 82.003021, 1.628246)" style=""/>
  <g transform="matrix(0.055831, 0, 0, 0.055831, 82.003021, 1.628246)" style=""/>
  <g transform="matrix(0.055831, 0, 0, 0.055831, 82.003021, 1.628246)" style=""/>
  <g transform="matrix(0.055831, 0, 0, 0.055831, 82.003021, 1.628246)" style=""/>
  <g transform="matrix(0.055831, 0, 0, 0.055831, 82.003021, 1.628246)" style=""/>
  <g transform="matrix(0.055831, 0, 0, 0.055831, 82.003021, 1.628246)" style=""/>
  <g transform="matrix(0.055831, 0, 0, 0.055831, 82.003021, 1.628246)" style=""/>
  <g transform="matrix(0.055831, 0, 0, 0.055831, 82.003021, 1.628246)" style=""/>
  <g transform="matrix(0.055831, 0, 0, 0.055831, 82.003021, 1.628246)" style=""/>
  <g transform="matrix(0.055831, 0, 0, 0.055831, 82.003021, 1.628246)" style=""/>
  <g transform="matrix(0.055831, 0, 0, 0.055831, 82.003021, 1.628246)" style=""/>
  <g transform="matrix(0.055831, 0, 0, 0.055831, 82.003021, 1.628246)" style=""/>
  <g transform="matrix(0.055831, 0, 0, 0.055831, 82.003021, 1.628246)" style=""/>
</svg>